<svg xmlns="http://www.w3.org/2000/svg" viewBox="0 0 256.38 256.38"><defs><style>.cls-1{fill:#fff200;}.cls-2{fill:none;stroke-width:3px;}.cls-2,.cls-3{stroke:#000;stroke-miterlimit:10;}</style></defs><title>under construction 2</title><g id="Layer_1" data-name="Layer 1"><rect class="cls-1" x="24.76" y="24.76" width="206.48" height="206.48" rx="43" ry="43" transform="translate(128.19 -52.83) rotate(45)"/><rect class="cls-2" x="29.01" y="29.01" width="197.99" height="197.99" rx="39.46" ry="39.46" transform="translate(128.19 -52.83) rotate(45)"/><path d="M94.76,209.29a28,28,0,0,1-3.35,4.45,14.68,14.68,0,0,0-.94-1.64,33.07,33.07,0,0,0,6.73-11.86l2.13.7c-.1.18-.29.26-.6.26a47.23,47.23,0,0,1-2.47,5.49l.73.21c0,.18-.18.29-.49.34v17H94.76Zm20.46-3.12h-8.35v4h7.72v1.64h-7.72V216H115v1.66h-8.09v6.53h-1.77v-18h-2.42A27.4,27.4,0,0,1,99,212a11.64,11.64,0,0,0-1.33-1.2,30.86,30.86,0,0,0,5.36-10.45l2.24.65a.63.63,0,0,1-.62.29c-.36,1-.75,2.11-1.2,3.15h11.75Z" transform="translate(0.19 0.19)"/><path d="M132.43,206.43a52.9,52.9,0,0,0,1.66,9.65,28.82,28.82,0,0,0,3.48-7.44l2.13.65c-.05.18-.26.26-.6.26a29.5,29.5,0,0,1-4.37,8.5c1.07,2.76,2.37,4.5,3.88,4.5.81,0,1.17-1.43,1.35-5a4.1,4.1,0,0,0,1.48.94c-.36,4.47-1,5.8-3,5.8-2.11,0-3.74-1.82-5-4.68a23.6,23.6,0,0,1-5.82,4.71,9,9,0,0,0-1.14-1.35,20.31,20.31,0,0,0,6.27-5.17,51.22,51.22,0,0,1-2.11-11.36h-9.54v3.51h6l.36,0,.91.05v.6c-.13,6.21-.29,8.45-.83,9.15s-1.33.73-2.73.73c-.6,0-1.27,0-2-.05a4,4,0,0,0-.52-1.64c1.27.13,2.47.13,2.91.13a1,1,0,0,0,.83-.26c.36-.44.49-2.21.6-7.07h-5.54c0,2.57,0,8.76-2.91,12.71a7.31,7.31,0,0,0-1.38-1.14c2.31-3.2,2.57-7.7,2.57-11.1v-7.28h11.15c-.1-1.53-.16-3.09-.18-4.65l2.34.13q0,.31-.54.39c0,1.38,0,2.78.1,4.13h8.5v1.69Zm2.68-6.19a25.24,25.24,0,0,1,4.73,3.07l-1.09,1.17A26.41,26.41,0,0,0,134,201.3Z" transform="translate(0.19 0.19)"/><path d="M155.81,204.79h9.72V217h-1.79V215.5h-7.93v8.66H154V215.5h-7.83v1.66h-1.74V204.79H154V200l2.34.16c0,.18-.18.31-.52.36Zm-9.65,9H154V206.5h-7.83Zm9.65,0h7.93V206.5h-7.93Z" transform="translate(0.19 0.19)"/></g><g id="Layer_2" data-name="Layer 2"><circle class="cls-3" cx="109.19" cy="86.19" r="21"/><line x1="100.19" y1="101.19" x2="87.44" y2="134.94"/><path d="M97.59,100.34,84.84,134.09c-1.14,3,3.69,4.32,4.82,1.33l12.75-33.75c1.14-3-3.69-4.32-4.82-1.33Z" transform="translate(0.19 0.19)"/><line x1="98.19" y1="104.19" x2="74.44" y2="115.94"/><path d="M96.74,101.84,73,113.59c-2.88,1.43-.35,5.74,2.52,4.32l23.75-11.75c2.88-1.43.35-5.74-2.52-4.32Z" transform="translate(0.19 0.19)"/><line x1="100.19" y1="103.28" x2="106.33" y2="129.19"/><path d="M97.59,103.76l6.14,25.91c.74,3.13,5.56,1.8,4.82-1.33l-6.14-25.91c-.74-3.13-5.56-1.8-4.82,1.33Z" transform="translate(0.19 0.19)"/><line x1="106.33" y1="129.19" x2="116.19" y2="151.19"/><path d="M104,130.26l9.86,22c1.31,2.93,5.62.39,4.32-2.52l-9.86-22c-1.31-2.93-5.62-.39-4.32,2.52Z" transform="translate(0.19 0.19)"/><line x1="74.44" y1="115.94" x2="80.16" y2="141.36"/><path d="M71.84,116.41l5.72,25.42c.71,3.14,5.53,1.81,4.82-1.33l-5.72-25.42c-.71-3.14-5.53-1.81-4.82,1.33Z" transform="translate(0.19 0.19)"/><line x1="88.05" y1="139.28" x2="97.94" y2="160.69"/><path d="M85.7,140.35l9.89,21.41c1.35,2.92,5.66.38,4.32-2.52L90,137.83c-1.35-2.92-5.66-.38-4.32,2.52Z" transform="translate(0.19 0.19)"/><line x1="87.44" y1="134.94" x2="82.19" y2="161.19"/><path d="M84.84,134.09l-5.25,26.25c-.63,3.14,4.19,4.49,4.82,1.33l5.25-26.25c.63-3.14-4.19-4.49-4.82-1.33Z" transform="translate(0.19 0.19)"/><line x1="97.94" y1="160.69" x2="92.79" y2="185.39"/><path d="M95.34,159.84l-5.15,24.7c-.65,3.14,4.16,4.48,4.82,1.33l5.15-24.7c.65-3.14-4.16-4.48-4.82-1.33Z" transform="translate(0.19 0.19)"/><line x1="82.19" y1="161.19" x2="70.19" y2="184.19"/><path d="M79.84,159.74l-12,23c-1.49,2.85,2.83,5.38,4.32,2.52l12-23c1.49-2.85-2.83-5.38-4.32-2.52Z" transform="translate(0.19 0.19)"/><line x1="61.19" y1="135.94" x2="139.19" y2="159.19"/><path d="M60.34,138.16l78,23.25c3.09.92,4.41-3.9,1.33-4.82l-78-23.25c-3.09-.92-4.41,3.9-1.33,4.82Z" transform="translate(0.19 0.19)"/><path class="cls-3" d="M60.72,149l7.67-26.15-24,.59c-7.51,1.07-10.1,9.62-4.18,13.81Z" transform="translate(0.19 0.19)"/></g><g id="Layer_3" data-name="Layer 3"><polygon class="cls-3" points="109.05 111.38 120.4 122.9 135.31 126.8 125.26 115.93 109.05 111.38"/><polygon class="cls-3" points="110.91 129.04 121.73 140.14 118.73 125.71 107.37 112.94 110.91 129.04"/><polygon id="_Path_" data-name="&lt;Path&gt;" class="cls-3" points="110.12 109.45 125.6 113.16 140.33 108.62 126.06 104.68 110.12 109.45"/><path class="cls-3" d="M115.19,58.32c-8.11-5.4-12.34-6.46-12.34-6.46s-9.22-4.12-12.56-5c0,0,4.59,4.08,2,6.36C90.27,55.62,88.91,64.42,89,67c-4.45.83-6,9.51-7.25,11,0-1.76,23.83-6.18,37.58-1.26Z" transform="translate(0.19 0.19)"/><path class="cls-3" d="M110.4,56.05c9.69-2.76,20.24-2.13,25.82-2.13,0,0-4.83,1.42-3.21,4.32,1,2.8-1.07,9.21-2.12,11.63,3.88,2.06,4.85,13.09,5.5,14.88.68-1.66-22-13.19-36.85-12.5Z" transform="translate(0.19 0.19)"/><polygon class="cls-3" points="88.85 102.52 75.94 93.19 60.59 91.79 72.29 100.86 88.85 102.52"/><polygon class="cls-3" points="90.48 100.48 84.48 85.72 72.29 76.76 77.31 90.29 90.48 100.48"/><polygon id="_Path_2" data-name="&lt;Path&gt;" class="cls-3" points="72.24 103.66 58.5 110.82 73.18 112.11 88 105.05 72.24 103.66"/></g><g id="Layer_4" data-name="Layer 4"><ellipse class="cls-3" cx="168.19" cy="183.19" rx="34" ry="9"/><polygon class="cls-3" points="145.22 182.19 191.16 182.19 184.6 138.19 151.78 138.19 145.22 182.19"/><circle class="cls-3" cx="152.19" cy="140.19" r="8"/><circle class="cls-3" cx="184.19" cy="140.19" r="8"/></g></svg>